<svg width="18" height="15" viewBox="0 0 18 15" fill="none" xmlns="http://www.w3.org/2000/svg">
<path d="M0.356251 7.20808L7.10625 0.458079C7.15796 0.406371 7.21935 0.365354 7.2869 0.337369C7.35446 0.309385 7.42688 0.294982 7.5 0.294982C7.57313 0.294982 7.64554 0.309385 7.7131 0.337369C7.78066 0.365354 7.84204 0.406371 7.89375 0.458079C7.94546 0.509787 7.98648 0.571173 8.01446 0.638732C8.04244 0.706292 8.05685 0.778703 8.05685 0.851829C8.05685 0.924955 8.04244 0.997365 8.01446 1.06493C7.98648 1.13248 7.94546 1.19387 7.89375 1.24558L2.10938 7.03933L17.25 7.03933C17.3992 7.03933 17.5423 7.09859 17.6477 7.20408C17.7532 7.30957 17.8125 7.45265 17.8125 7.60183C17.8125 7.75101 17.7532 7.89409 17.6477 7.99958C17.5423 8.10507 17.3992 8.16433 17.25 8.16433L2.10938 8.16433L7.89375 13.9581C7.99818 14.0625 8.05685 14.2041 8.05685 14.3518C8.05685 14.4995 7.99818 14.6411 7.89375 14.7456C7.78932 14.85 7.64769 14.9087 7.5 14.9087C7.35231 14.9087 7.21068 14.85 7.10625 14.7456L0.356251 7.99558C0.302926 7.94479 0.260474 7.88371 0.231465 7.81602C0.202458 7.74834 0.187501 7.67547 0.187501 7.60183C0.187501 7.52819 0.202458 7.45532 0.231465 7.38763C0.260474 7.31995 0.302926 7.25886 0.356251 7.20808Z" fill="#8494A1"/>
</svg>
